<svg width="32" height="32" viewBox="0 0 32 32" fill="none" xmlns="http://www.w3.org/2000/svg">
<circle cx="16" cy="16" r="16" fill="#F7F7F7"/>
<path d="M16.0001 17.05L10.7501 22.3C10.6001 22.45 10.4251 22.525 10.2251 22.525C10.0251 22.525 9.8501 22.45 9.7001 22.3C9.5501 22.15 9.4751 21.975 9.4751 21.775C9.4751 21.575 9.5501 21.4 9.7001 21.25L14.9501 16L9.7001 10.75C9.5501 10.6 9.4751 10.425 9.4751 10.225C9.4751 10.025 9.5501 9.85001 9.7001 9.70001C9.8501 9.55001 10.0251 9.47501 10.2251 9.47501C10.4251 9.47501 10.6001 9.55001 10.7501 9.70001L16.0001 14.95L21.2501 9.70001C21.4001 9.55001 21.5751 9.47501 21.7751 9.47501C21.9751 9.47501 22.1501 9.55001 22.3001 9.70001C22.4501 9.85001 22.5251 10.025 22.5251 10.225C22.5251 10.425 22.4501 10.6 22.3001 10.75L17.0501 16L22.3001 21.25C22.4501 21.4 22.5251 21.575 22.5251 21.775C22.5251 21.975 22.4501 22.15 22.3001 22.3C22.1501 22.45 21.9751 22.525 21.7751 22.525C21.5751 22.525 21.4001 22.45 21.2501 22.3L16.0001 17.05Z" fill="#606880"/>
</svg>
