<svg xmlns="http://www.w3.org/2000/svg" width="20" height="20" viewBox="0 0 20 20" fill="none">
  <path d="M15.7917 13.9583L13.1042 11.2708C13.2431 11.0486 13.3508 10.7882 13.4272 10.4896C13.5036 10.191 13.5417 9.88889 13.5417 9.58333C13.5417 8.59722 13.198 7.76042 12.5105 7.07292C11.823 6.38542 10.9862 6.04167 10.0001 6.04167C9.69453 6.04167 9.39591 6.07639 9.10425 6.14583C8.81258 6.21528 8.54869 6.32639 8.31258 6.47917L6.02091 4.16667C6.50703 3.94444 7.12855 3.75 7.8855 3.58333C8.64244 3.41667 9.38203 3.33333 10.1042 3.33333C11.9792 3.33333 13.7084 3.84722 15.2917 4.875C16.8751 5.90278 18.0834 7.28472 18.9167 9.02083C18.9584 9.09028 18.9862 9.17361 19.0001 9.27083C19.014 9.36806 19.0209 9.47222 19.0209 9.58333C19.0209 9.69445 19.014 9.80208 19.0001 9.90625C18.9862 10.0104 18.9584 10.0972 18.9167 10.1667C18.5556 10.9306 18.1112 11.6319 17.5834 12.2708C17.0556 12.9097 16.4584 13.4722 15.7917 13.9583ZM16.5417 18.2083L13.5001 15.2292C13.014 15.4236 12.4654 15.5729 11.8542 15.6771C11.2431 15.7812 10.6251 15.8333 10.0001 15.8333C8.08341 15.8333 6.32647 15.3194 4.72925 14.2917C3.13203 13.2639 1.91675 11.8819 1.08341 10.1458C1.04175 10.0625 1.01397 9.9757 1.00008 9.88542C0.986193 9.79514 0.979248 9.69445 0.979248 9.58333C0.979248 9.47222 0.989665 9.36458 1.0105 9.26042C1.03133 9.15625 1.05564 9.06945 1.08341 9C1.37508 8.375 1.74661 7.76736 2.198 7.17708C2.64939 6.58681 3.18064 6.02778 3.79175 5.5L1.60425 3.3125C1.47925 3.1875 1.41675 3.04167 1.41675 2.875C1.41675 2.70833 1.47925 2.5625 1.60425 2.4375C1.72925 2.3125 1.87855 2.25 2.05216 2.25C2.22578 2.25 2.37508 2.3125 2.50008 2.4375L17.4167 17.3542C17.5279 17.4653 17.5834 17.6007 17.5834 17.7604C17.5834 17.9201 17.5279 18.0625 17.4167 18.1875C17.3056 18.3264 17.1633 18.3958 16.9897 18.3958C16.8161 18.3958 16.6667 18.3333 16.5417 18.2083ZM10.0001 13.125C10.1945 13.125 10.4029 13.1076 10.6251 13.0729C10.8473 13.0382 11.0348 12.9861 11.1876 12.9167L6.66675 8.39583C6.5973 8.5625 6.54522 8.75 6.5105 8.95833C6.47578 9.16667 6.45841 9.375 6.45841 9.58333C6.45841 10.5833 6.80564 11.4236 7.50008 12.1042C8.19453 12.7847 9.02786 13.125 10.0001 13.125ZM12.1876 10.3542L9.22925 7.39583C10.0904 7.07639 10.889 7.24306 11.6251 7.89583C12.3612 8.54861 12.5487 9.36806 12.1876 10.3542Z" fill="#606880"/>
</svg>