<svg xmlns="http://www.w3.org/2000/svg" width="20" height="20" viewBox="0 0 20 20" fill="none">
  <path d="M10.0001 13.125C10.9862 13.125 11.823 12.7812 12.5105 12.0937C13.198 11.4062 13.5417 10.5694 13.5417 9.58333C13.5417 8.59722 13.198 7.76042 12.5105 7.07292C11.823 6.38542 10.9862 6.04167 10.0001 6.04167C9.01397 6.04167 8.17716 6.38542 7.48966 7.07292C6.80216 7.76042 6.45841 8.59722 6.45841 9.58333C6.45841 10.5694 6.80216 11.4062 7.48966 12.0937C8.17716 12.7812 9.01397 13.125 10.0001 13.125ZM10.0001 11.9167C9.3473 11.9167 8.79522 11.691 8.34383 11.2396C7.89244 10.7882 7.66675 10.2361 7.66675 9.58333C7.66675 8.93055 7.89244 8.37847 8.34383 7.92708C8.79522 7.47569 9.3473 7.25 10.0001 7.25C10.6529 7.25 11.2049 7.47569 11.6563 7.92708C12.1077 8.37847 12.3334 8.93055 12.3334 9.58333C12.3334 10.2361 12.1077 10.7882 11.6563 11.2396C11.2049 11.691 10.6529 11.9167 10.0001 11.9167ZM10.0001 15.8333C8.08341 15.8333 6.33689 15.3125 4.7605 14.2708C3.18411 13.2292 1.96536 11.8542 1.10425 10.1458C1.06258 10.0764 1.03133 9.99305 1.0105 9.89583C0.989665 9.79861 0.979248 9.69444 0.979248 9.58333C0.979248 9.47222 0.989665 9.36805 1.0105 9.27083C1.03133 9.17361 1.06258 9.09028 1.10425 9.02083C1.96536 7.3125 3.18411 5.9375 4.7605 4.89583C6.33689 3.85417 8.08341 3.33333 10.0001 3.33333C11.9167 3.33333 13.6633 3.85417 15.2397 4.89583C16.8161 5.9375 18.0348 7.3125 18.8959 9.02083C18.9376 9.09028 18.9688 9.17361 18.9897 9.27083C19.0105 9.36805 19.0209 9.47222 19.0209 9.58333C19.0209 9.69444 19.0105 9.79861 18.9897 9.89583C18.9688 9.99305 18.9376 10.0764 18.8959 10.1458C18.0348 11.8542 16.8161 13.2292 15.2397 14.2708C13.6633 15.3125 11.9167 15.8333 10.0001 15.8333Z" fill="#606880"/>
</svg>